Patient4_TMGait_0pt4_02_right_30_GRF.mot
version=1
nRows=71
nColumns=19
inDegrees=no
endheader
time	F1x	F1y	F1z	M1x	M1y	M1z	F2x	F2y	F2z	M2x	M2y	M2z	EC1x	EC1y	EC1z	EC2x	EC2y	EC2z
39.57	-18.9732	779.9848	70.535	-254.3088	-76.179	854.5941	12.7723	23.5517	-6.8885	6.0814	3.974	24.806	-0.0592	0.0182	-0.0073	-0.0462	0.0165	0.9585
39.5831	-12.8837	768.756	68.0572	-250.5648	-72.3728	841.9141	8.5171	16.5465	-4.6663	4.3367	2.7808	17.547	-0.0592	0.0182	-0.0073	-0.0462	0.0165	0.9585
39.5963	-7.0762	756.6347	65.3804	-246.4862	-68.227	827.3225	4.9586	10.61	-2.7894	2.8603	1.7623	11.3942	-0.0592	0.0182	-0.0073	-0.0462	0.0165	0.9585
39.6094	-1.8268	744.6467	62.7077	-242.4182	-63.9984	811.9776	2.2929	6.0858	-1.3616	1.739	0.97262	6.7116	-0.0592	0.0182	-0.0073	-0.0462	0.0165	0.9585
39.6226	2.7698	733.7692	60.2288	-238.6872	-59.9304	797.1191	0.46269	2.9646	-0.38186	0.97043	0.42338	3.4988	-0.0592	0.0182	-0.0073	-0.0462	0.0165	0.9585
39.6357	6.7035	724.8145	58.0433	-235.5613	-56.181	783.8602	-0.65538	1.0408	0.21533	0.50213	0.081915	1.5197	-0.0592	0.0182	-0.0073	-0.0462	0.0165	0.9585
39.6489	9.9808	718.3421	56.2335	-233.2178	-52.8871	773.0385	-1.2547	0.030307	0.51468	0.26018	-0.086174	0.47512	-0.0592	0.0182	-0.0073	-0.0462	0.0165	0.9585
39.662	12.6426	714.6419	54.8004	-231.7417	-50.0934	765.1526	-1.517	-0.37576	0.60245	0.16357	-0.11875	0.036848	-0.0592	0.0182	-0.0073	-0.0462	0.0165	0.9585
39.6751	14.7525	713.7321	53.7466	-231.1269	-47.8278	760.3597	-1.5831	-0.45706	0.54803	0.137	-0.044574	-0.08885	-0.0592	0.0182	-0.0073	-0.0462	0.0165	0.9585
39.6883	16.4129	715.3887	53.0238	-231.2963	-46.046	758.4893	-1.5784	-0.44212	0.40242	0.1159	0.12098	-0.13284	-0.0592	0.0182	-0.0073	-0.0462	0.0165	0.9585
39.7014	17.7364	719.2047	52.6059	-232.1185	-44.7094	759.1246	-1.5726	-0.53148	0.20957	0.041614	0.35149	-0.31802	-0.0592	0.0182	-0.0073	-0.0462	0.0165	0.9585
39.7146	18.8815	724.6685	52.4486	-233.4348	-43.7394	761.68	-1.6167	-0.8429	-0.0056444	-0.12555	0.62793	-0.76684	-0.0592	0.0182	-0.0073	-0.0462	0.0165	0.9585
39.7277	20.0191	731.2636	52.5456	-235.0902	-43.0793	765.54	-1.6947	-1.4633	-0.21783	-0.41584	0.91247	-1.5778	-0.0592	0.0182	-0.0073	-0.0462	0.0165	0.9585
39.7409	21.3153	738.4952	52.8738	-236.9409	-42.651	770.0965	-1.7795	-2.4113	-0.40615	-0.83598	1.1661	-2.7627	-0.0592	0.0182	-0.0073	-0.0462	0.0165	0.9585
39.754	22.8965	745.8507	53.4135	-238.8374	-42.3859	774.7344	-1.7847	-3.6186	-0.54265	-1.3572	1.3186	-4.2419	-0.0592	0.0182	-0.0073	-0.0462	0.0165	0.9585
39.7671	24.8214	752.7508	54.0953	-240.6052	-42.1867	778.8059	-1.5709	-4.8998	-0.58983	-1.9028	1.2692	-5.8001	-0.0592	0.0182	-0.0073	-0.0462	0.0165	0.9585
39.7803	27.0935	758.5248	54.844	-242.0341	-41.9712	781.602	-0.9818	-5.9025	-0.48435	-2.3257	0.87883	-7.0191	-0.0592	0.0182	-0.0073	-0.0462	0.0165	0.9585
39.7934	29.6526	762.4743	55.5757	-242.8998	-41.6701	782.4231	0.19181	-6.0618	-0.15362	-2.3874	-0.018786	-7.2363	-0.0592	0.0182	-0.0073	-0.0462	0.0165	0.9585
39.8066	32.4226	764.0021	56.247	-243.0041	-41.2652	780.6985	2.1491	-4.5385	0.49679	-1.7401	-1.6102	-5.4542	-0.0592	0.0182	-0.0073	-0.0462	0.0165	0.9585
39.8197	35.315	762.7346	56.8351	-242.2135	-40.7686	776.1211	5.0641	-0.27284	1.561	0.059714	-4.0693	-0.42093	-0.0592	0.0182	-0.0073	-0.0462	0.0165	0.9585
39.8329	38.2344	758.5685	57.3568	-240.4743	-40.2342	768.69	8.9927	7.9952	3.1109	3.5362	-7.4957	9.369	-0.0592	0.0182	-0.0073	-0.0462	0.0165	0.9585
39.846	41.0746	751.6311	57.8237	-237.8073	-39.7029	758.6407	13.7963	21.5507	5.1452	9.2211	-11.818	25.455	-0.0592	0.0182	-0.0073	-0.0462	0.0165	0.9585
39.8591	43.7099	742.1442	58.2407	-234.265	-39.2137	746.3341	18.9673	41.3703	7.5447	17.5171	-16.6734	49.0205	-0.0592	0.0182	-0.0073	-0.0462	0.0165	0.9585
39.8723	45.9914	730.2102	58.551	-229.8673	-38.7585	732.0189	23.4587	67.6456	9.9805	28.4918	-21.2367	80.3213	-0.0592	0.0182	-0.0073	-0.0462	0.0165	0.9585
39.8854	47.7264	715.7009	58.654	-224.5664	-38.3051	715.6973	25.6753	99.1866	11.855	41.6295	-24.1545	117.9694	-0.0592	0.0182	-0.0073	-0.0462	0.0165	0.9585
39.8986	48.72	698.2927	58.3835	-218.272	-37.7639	697.128	24.2205	133.3368	12.4353	55.7858	-24.0274	158.8747	-0.0592	0.0182	-0.0073	-0.0462	0.0165	0.9585
39.9117	48.8226	677.6971	57.5719	-210.9258	-37.0381	676.0537	19.2862	166.811	11.3119	69.564	-20.5182	199.1573	-0.0592	0.0182	-0.0073	-0.0462	0.0165	0.9585
39.9249	48.003	653.913	56.0912	-202.5796	-36.0315	652.4144	12.2828	197.3308	8.7068	82.0285	-14.4904	235.954	-0.0592	0.0182	-0.0073	-0.0462	0.0165	0.9585
39.938	46.404	627.2763	53.9313	-193.4026	-34.6934	626.4094	4.5231	225.2498	5.028	93.3325	-6.9593	269.5155	-0.0592	0.0182	-0.0073	-0.0462	0.0165	0.9585
39.9511	44.3037	598.2735	51.0935	-183.6177	-32.9299	598.3405	-3.0965	252.7012	0.88365	104.3852	1.0388	302.2449	-0.0592	0.0182	-0.0073	-0.0462	0.0165	0.9585
39.9643	42.0118	567.1272	47.6112	-173.3561	-30.6568	568.2307	-10.0883	281.7583	-3.3149	116.0732	8.8339	336.5769	-0.0592	0.0182	-0.0073	-0.0462	0.0165	0.9585
39.9774	39.7248	533.5753	43.4943	-162.5733	-27.7978	535.6572	-16.1269	313.5004	-7.1475	128.8731	15.8394	373.7546	-0.0592	0.0182	-0.0073	-0.0462	0.0165	0.9585
39.9906	37.424	496.9752	38.8309	-151.073	-24.4151	499.8994	-20.9555	347.9458	-10.512	142.8022	21.8364	413.7688	-0.0592	0.0182	-0.0073	-0.0462	0.0165	0.9585
40.0037	34.9645	456.7298	33.7834	-138.6445	-20.684	460.3305	-24.4234	384.5388	-13.5127	157.6131	26.8979	455.9531	-0.0592	0.0182	-0.0073	-0.0462	0.0165	0.9585
40.0169	32.1228	412.6639	28.6474	-125.1831	-16.9304	416.7747	-26.5659	422.496	-16.5405	172.9383	31.4771	499.4276	-0.0592	0.0182	-0.0073	-0.0462	0.0165	0.9585
40.03	28.6842	365.2303	23.7435	-110.7682	-13.5128	369.6804	-27.651	460.9924	-19.997	188.3859	36.1278	543.3017	-0.0592	0.0182	-0.0073	-0.0462	0.0165	0.9585
40.0431	24.4618	315.5473	19.3793	-95.6856	-10.7824	320.1832	-28.1073	499.4675	-24.2427	203.6793	41.407	587.0001	-0.0592	0.0182	-0.0073	-0.0462	0.0165	0.9585
40.0563	19.3885	265.3202	15.7122	-80.4223	-8.9254	269.996	-28.3819	537.9053	-29.3628	218.7833	47.5756	630.5554	-0.0592	0.0182	-0.0073	-0.0462	0.0165	0.9585
40.0694	13.5926	216.6279	12.7636	-65.6026	-7.9473	221.2104	-28.7596	576.629	-35.2194	233.8295	54.5741	674.3478	-0.0592	0.0182	-0.0073	-0.0462	0.0165	0.9585
40.0826	7.4772	171.5445	10.431	-51.8657	-7.6466	175.9061	-29.3858	615.8039	-41.4648	248.9088	62.0555	718.549	-0.0592	0.0182	-0.0073	-0.0462	0.0165	0.9585
40.0957	1.6459	131.6624	8.5995	-39.7096	-7.7362	135.6731	-30.33	654.9709	-47.7277	263.8719	69.6115	762.6035	-0.0592	0.0182	-0.0073	-0.0462	0.0165	0.9585
40.1089	-3.3064	97.7864	7.1336	-29.3926	-7.8991	101.3288	-31.619	692.9565	-53.6639	278.2827	76.8521	805.143	-0.0592	0.0182	-0.0073	-0.0462	0.0165	0.9585
40.122	-6.9619	69.9562	5.9206	-20.9339	-7.891	72.9435	-33.2233	728.0786	-59.0051	291.4973	83.457	844.2284	-0.0592	0.0182	-0.0073	-0.0462	0.0165	0.9585
40.1351	-9.1588	47.7603	4.8434	-14.2098	-7.546	50.1664	-35.0221	758.496	-63.5451	302.8062	89.1512	877.7389	-0.0592	0.0182	-0.0073	-0.0462	0.0165	0.9585
40.1483	-9.8807	30.5887	3.8267	-9.0301	-6.7896	32.4462	-36.8253	782.5497	-67.154	311.5743	93.7216	903.7717	-0.0592	0.0182	-0.0073	-0.0462	0.0165	0.9585
40.1614	-9.2478	17.7768	2.8356	-5.1863	-5.6299	19.1545	-38.4054	799.021	-69.7648	317.3416	97.0167	920.9406	-0.0592	0.0182	-0.0073	-0.0462	0.0165	0.9585
40.1746	-7.5915	8.6952	1.8996	-2.4802	-4.206	9.6778	-39.5512	807.2706	-71.3557	319.8762	98.9422	928.5274	-0.0592	0.0182	-0.0073	-0.0462	0.0165	0.9585
40.1877	-5.5213	2.8031	1.0996	-0.7404	-2.7864	3.4832	-40.1177	807.3008	-71.9458	319.1991	99.4691	926.5584	-0.0592	0.0182	-0.0073	-0.0462	0.0165	0.9585
40.2009	-3.5124	-0.55289	0.49794	0.23471	-1.5793	-0.079446	-40.0182	799.8193	-71.595	315.6085	98.6376	915.8622	-0.0592	0.0182	-0.0073	-0.0462	0.0165	0.9585
40.214	-1.829	-2.0715	0.081305	0.65622	-0.65359	-1.7193	-39.233	786.2853	-70.4324	309.6967	96.5894	898.1136	-0.0592	0.0182	-0.0073	-0.0462	0.0165	0.9585
40.2271	-0.55774	-2.389	-0.16705	0.71787	-0.020435	-2.1061	-37.7995	768.7728	-68.6614	302.2959	93.5717	875.6702	-0.0592	0.0182	-0.0073	-0.0462	0.0165	0.9585
40.2403	0.30189	-2.0058	-0.30087	0.57281	0.37168	-1.7503	-35.7942	749.6922	-66.5452	294.3638	89.9148	851.2563	-0.0592	0.0182	-0.0073	-0.0462	0.0165	0.9585
40.2534	0.83014	-1.2968	-0.34878	0.33524	0.57257	-1.0445	-33.3183	731.4675	-64.3257	286.8593	85.9404	827.5936	-0.0592	0.0182	-0.0073	-0.0462	0.0165	0.9585
40.2666	1.0992	-0.49321	-0.35377	0.07538	0.64892	-0.22768	-30.4868	716.26	-62.1997	280.6343	81.9243	807.0914	-0.0592	0.0182	-0.0073	-0.0462	0.0165	0.9585
40.2797	1.198	0.26195	-0.32594	-0.16457	0.64012	0.5427	-27.396	705.7628	-60.303	276.3547	78.0647	791.6051	-0.0592	0.0182	-0.0073	-0.0462	0.0165	0.9585
40.2929	1.1914	0.89082	-0.28776	-0.36396	0.58636	1.1803	-24.134	701.0231	-58.7299	274.4274	74.4998	782.2592	-0.0592	0.0182	-0.0073	-0.0462	0.0165	0.9585
40.306	1.1154	1.3627	-0.23475	-0.51414	0.49586	1.6559	-20.783	702.3068	-57.5115	274.9467	71.2917	779.3262	-0.0592	0.0182	-0.0073	-0.0462	0.0165	0.9585
40.3191	1.0074	1.6432	-0.17419	-0.6055	0.3879	1.9245	-17.4137	709.1046	-56.6325	277.6945	68.45	782.2557	-0.0592	0.0182	-0.0073	-0.0462	0.0165	0.9585
40.3323	0.86579	1.6966	-0.10357	-0.62481	0.26159	1.9522	-14.0832	720.2373	-56.0383	282.1826	65.9401	789.7911	-0.0592	0.0182	-0.0073	-0.0462	0.0165	0.9585
40.3454	0.70564	1.4812	-0.027875	-0.55544	0.12426	1.6755	-10.8618	734.0141	-55.6616	287.718	63.7194	800.1548	-0.0592	0.0182	-0.0073	-0.0462	0.0165	0.9585
40.3586	0.51965	0.94356	0.054591	-0.37628	-0.027906	1.0311	-7.8194	748.4823	-55.4216	293.4993	61.7333	811.3213	-0.0592	0.0182	-0.0073	-0.0462	0.0165	0.9585
40.3717	0.324	0.023011	0.1352	-0.065666	-0.18291	-0.06729	-5.009	761.7001	-55.2508	298.727	59.9372	821.2966	-0.0592	0.0182	-0.0073	-0.0462	0.0165	0.9585
40.3849	0.13728	-1.3114	0.21306	0.38938	-0.33348	-1.6656	-2.4988	772.002	-55.0997	302.7114	58.3117	828.3972	-0.0592	0.0182	-0.0073	-0.0462	0.0165	0.9585
40.398	-0.0036273	-3.0383	0.27597	0.98252	-0.4514	-3.738	-0.34103	778.1614	-54.9567	304.9414	56.873	831.3975	-0.0592	0.0182	-0.0073	-0.0462	0.0165	0.9585
40.4111	-0.031451	-5.0585	0.30464	1.6768	-0.48618	-6.1632	1.4422	779.56	-54.8581	305.1529	55.6715	829.7043	-0.0592	0.0182	-0.0073	-0.0462	0.0165	0.9585
40.4243	0.1306	-7.0908	0.26147	2.3751	-0.36473	-8.5993	2.8688	776.2742	-54.8691	303.3729	54.7667	823.4299	-0.0592	0.0182	-0.0073	-0.0462	0.0165	0.9585
40.4374	0.60943	-8.6224	0.10491	2.899	0.0045253	-10.4351	3.9815	769.0636	-55.064	299.915	54.2131	813.3697	-0.0592	0.0182	-0.0073	-0.0462	0.0165	0.9585
40.4506	1.5416	-8.8371	-0.22535	2.964	0.73832	-10.6838	4.8759	759.217	-55.5027	295.314	54.0312	800.8348	-0.0592	0.0182	-0.0073	-0.0462	0.0165	0.9585
40.4637	3.0783	-6.5513	-0.78867	2.1575	1.9583	-7.936	5.6873	748.2473	-56.2097	290.207	54.1918	787.3329	-0.0592	0.0182	-0.0073	-0.0462	0.0165	0.9585
40.4769	5.3293	-0.21892	-1.6339	-0.056577	3.759	-0.33915	6.5406	737.553	-57.1623	285.1942	54.6196	774.2462	-0.0592	0.0182	-0.0073	-0.0462	0.0165	0.9585
40.49	8.3097	11.9596	-2.7915	-4.3026	6.1727	14.2769	7.5706	728.0938	-58.2895	280.7026	55.1886	762.5033	-0.0592	0.0182	-0.0073	-0.0462	0.0165	0.9585
